<svg width="715" height="441" viewBox="0 0 715 441" fill="none" xmlns="http://www.w3.org/2000/svg">
<g clip-path="url(#clip0_944_31943)">
<rect width="715" height="440" transform="translate(0 0.5)" fill="#ED52CB"/>
<rect x="488.786" y="-24.1875" width="156.369" height="156.369" rx="4.93132" stroke="#080808" stroke-width="2" stroke-dasharray="6.49 4.22"/>
<rect x="655.289" y="-24.1875" width="156.369" height="156.369" rx="4.93132" stroke="#080808" stroke-width="2" stroke-dasharray="6.49 4.22"/>
<rect x="488.786" y="308.818" width="156.369" height="156.369" rx="4.93132" stroke="#080808" stroke-width="2" stroke-dasharray="6.49 4.22"/>
<rect x="655.289" y="308.818" width="156.369" height="156.369" rx="4.93132" stroke="#080808" stroke-width="2" stroke-dasharray="6.49 4.22"/>
<rect x="655.289" y="142.316" width="156.369" height="156.369" rx="4.93132" stroke="#080808" stroke-width="2" stroke-dasharray="6.49 4.22"/>
<rect x="489.844" y="154.479" width="156.369" height="156.369" rx="4.93132" transform="rotate(-23.8881 489.844 154.479)" fill="#ED52CB" stroke="#080808" stroke-width="2" stroke-dasharray="6.49 4.22"/>
<path d="M658.214 272.404C658.515 272.366 658.622 271.985 658.384 271.796L613.791 236.376C613.557 236.19 613.213 236.372 613.236 236.67L617.587 293.453C617.61 293.755 617.986 293.88 618.186 293.652L630.334 279.786C630.492 279.605 630.781 279.639 630.894 279.851L640.733 298.386C640.821 298.553 641.028 298.616 641.195 298.528L649.359 294.194C649.526 294.105 649.59 293.898 649.501 293.731L639.662 275.196C639.55 274.984 639.684 274.726 639.922 274.696L658.214 272.404Z" fill="#080808"/>
<rect x="533.893" y="194.848" width="81.1987" height="15.6597" transform="rotate(-23.1393 533.893 194.848)" fill="white"/>
<rect x="543.535" y="217.411" width="114.838" height="15.6597" transform="rotate(-23.1393 543.535 217.411)" fill="white"/>
<path d="M31.5 36.0241C31.5 31.9814 34.7773 28.7041 38.82 28.7041H449.951C453.994 28.7041 457.271 31.9814 457.271 36.0241V260.852C457.271 264.895 453.994 268.172 449.951 268.172H38.82C34.7773 268.172 31.5 264.895 31.5 260.852V36.0241Z" fill="#080808"/>
<rect x="47.1367" y="40.9651" width="397.624" height="22.5264" rx="11.2632" fill="#ED52CB"/>
<circle cx="395.155" cy="52.2278" r="5.41431" fill="#080808"/>
<circle cx="431.883" cy="52.2278" r="5.41431" fill="#080808"/>
<circle cx="413.519" cy="52.2278" r="5.41431" fill="#080808"/>
<rect x="47.1367" y="148.438" width="62.5477" height="12.0628" fill="white"/>
<rect x="47.1367" y="167.338" width="88.4603" height="12.0628" fill="white"/>
<circle cx="325.258" cy="201.316" r="29.8218" fill="#ED52CB"/>
<path d="M229.572 125.436L291.162 156.257L233.676 194.185L229.572 125.436Z" fill="#ED52CB"/>
<rect x="376.402" y="116.9" width="54.418" height="54.418" transform="rotate(23.0685 376.402 116.9)" fill="#ED52CB"/>
<path d="M31.5 285.85C31.5 281.808 34.7773 278.53 38.82 278.53H449.951C453.994 278.53 457.271 281.808 457.271 285.85V510.678C457.271 514.721 453.994 517.998 449.951 517.998H38.82C34.7773 517.998 31.5 514.721 31.5 510.678V285.85Z" fill="#080808"/>
<path d="M185.944 318.95C185.944 316.227 183.737 314.02 181.014 314.02H81.4313C78.7078 314.02 76.5 316.228 76.5 318.951V436.675C76.5 439.398 78.7078 441.606 81.4313 441.606H181.013C183.737 441.606 185.944 439.398 185.944 436.675V318.95Z" stroke="white" stroke-width="2" stroke-dasharray="6.49 4.22"/>
<circle cx="322.258" cy="400.759" r="29.8218" fill="#ED52CB"/>
<path d="M226.572 324.879L288.162 355.699L230.676 393.627L226.572 324.879Z" fill="#ED52CB"/>
<rect x="373.402" y="316.343" width="54.418" height="54.418" transform="rotate(23.0685 373.402 316.343)" fill="#ED52CB"/>
<path fill-rule="evenodd" clip-rule="evenodd" d="M59.7127 293.77L55.0003 302.982H50.5741L52.5462 299.164H52.4577C50.8307 301.276 48.4032 302.666 44.9443 302.982V299.217C44.9443 299.217 47.157 299.086 48.4578 297.718H44.9443V293.77H48.8931V297.017L48.9818 297.017L50.5954 293.77H53.5817V296.997L53.6704 296.997L55.3445 293.77H59.7127Z" fill="white"/>
<circle cx="47.5659" cy="316.641" r="2.62158" fill="#ED52CB"/>
<circle cx="47.5659" cy="324.634" r="2.62158" fill="#ED52CB"/>
<circle cx="47.5659" cy="332.627" r="2.62158" fill="#ED52CB"/>
<circle cx="47.5659" cy="340.621" r="2.62158" fill="#ED52CB"/>
</g>
<defs>
<clipPath id="clip0_944_31943">
<rect width="715" height="440" fill="white" transform="translate(0 0.5)"/>
</clipPath>
</defs>
</svg>
